<svg version="1.1" id="Layer_1" xmlns="http://www.w3.org/2000/svg" xmlns:xlink="http://www.w3.org/1999/xlink" x="0px" y="0px"
	 viewBox="0 0 1718 1718" enable-background="new 0 0 1718 1718" xml:space="preserve">
<g>
	<path fill="none" stroke="#000000" stroke-width="1.3103" stroke-miterlimit="10" d="M1669.3821,885.2054h-34.4852
		c-4.9501,0-8.9628-4.0128-8.9628-8.9628v-34.4852c0-4.95,4.0127-8.9628,8.9628-8.9628h34.4852c4.95,0,8.9628,4.0128,8.9628,8.9628
		v34.4852C1678.3448,881.1926,1674.332,885.2054,1669.3821,885.2054z"/>
	<path fill="none" stroke="#000000" stroke-width="1.4242" stroke-miterlimit="10" d="M1668.5458,887.4841h-37.484
		c-5.3804,0-9.7422-4.3617-9.7422-9.7422v-37.4839c0-5.3805,4.3618-9.7422,9.7422-9.7422h37.484
		c5.3804,0,9.7421,4.3617,9.7421,9.7422v37.4839C1678.2878,883.1224,1673.9261,887.4841,1668.5458,887.4841z"/>
	<path fill="none" stroke="#000000" stroke-width="1.5481" stroke-miterlimit="10" d="M1667.6366,889.961h-40.7433
		c-5.8484,0-10.5894-4.741-10.5894-10.5893v-40.7434c0-5.8483,4.741-10.5893,10.5894-10.5893h40.7433
		c5.8484,0,10.5894,4.741,10.5894,10.5893v40.7434C1678.226,885.22,1673.485,889.961,1667.6366,889.961z"/>
	<path fill="none" stroke="#000000" stroke-width="1.6827" stroke-miterlimit="10" d="M1666.6486,892.6533h-44.2864
		c-6.3568,0-11.5101-5.1533-11.5101-11.5101v-44.2863c0-6.3569,5.1533-11.5101,11.5101-11.5101h44.2864
		c6.3568,0,11.5101,5.1533,11.5101,11.5101v44.2863C1678.1587,887.5,1673.0054,892.6533,1666.6486,892.6533z"/>
	<path fill="none" stroke="#000000" stroke-width="1.829" stroke-miterlimit="10" d="M1665.5745,895.5797h-48.1372
		c-6.9097,0-12.5111-5.6014-12.5111-12.511v-48.1373c0-6.9096,5.6014-12.511,12.5111-12.511h48.1372
		c6.9097,0,12.511,5.6014,12.511,12.511v48.1373C1678.0854,889.9783,1672.4841,895.5797,1665.5745,895.5797z"/>
	<path fill="none" stroke="#000000" stroke-width="1.988" stroke-miterlimit="10" d="M1664.4071,898.7605h-52.3232
		c-7.5104,0-13.5989-6.0884-13.5989-13.5989v-52.3231c0-7.5105,6.0885-13.5989,13.5989-13.5989h52.3232
		c7.5105,0,13.5989,6.0884,13.5989,13.5989v52.3231C1678.006,892.6721,1671.9176,898.7605,1664.4071,898.7605z"/>
	<path fill="none" stroke="#000000" stroke-width="2.1609" stroke-miterlimit="10" d="M1663.1381,902.218h-56.8729
		c-8.1636,0-14.7815-6.6179-14.7815-14.7815v-56.8729c0-8.1636,6.6179-14.7815,14.7815-14.7815h56.8729
		c8.1636,0,14.7815,6.6179,14.7815,14.7815v56.8729C1677.9196,895.6,1671.3016,902.218,1663.1381,902.218z"/>
	<path fill="none" stroke="#000000" stroke-width="2.3488" stroke-miterlimit="10" d="M1661.7588,905.976h-61.8185
		c-8.8734,0-16.0668-7.1934-16.0668-16.0668v-61.8185c0-8.8734,7.1934-16.0668,16.0668-16.0668h61.8185
		c8.8734,0,16.0668,7.1934,16.0668,16.0668v61.8185C1677.8256,898.7827,1670.6322,905.976,1661.7588,905.976z"/>
	<path fill="none" stroke="#000000" stroke-width="2.553" stroke-miterlimit="10" d="M1660.2596,910.0609h-67.1941
		c-9.645,0-17.4639-7.8188-17.4639-17.4639v-67.194c0-9.645,7.8188-17.4639,17.4639-17.4639h67.1941
		c9.645,0,17.4639,7.8188,17.4639,17.4639v67.194C1677.7235,902.242,1669.9047,910.0609,1660.2596,910.0609z"/>
	<path fill="none" stroke="#000000" stroke-width="2.775" stroke-miterlimit="10" d="M1658.63,914.501h-73.037
		c-10.4836,0-18.9824-8.4988-18.9824-18.9825v-73.037c0-10.4837,8.4988-18.9825,18.9824-18.9825h73.037
		c10.4838,0,18.9824,8.4988,18.9824,18.9825v73.037C1677.6124,906.0022,1669.1138,914.501,1658.63,914.501z"/>
	<path fill="none" stroke="#000000" stroke-width="3.0164" stroke-miterlimit="10" d="M1656.8586,919.3271h-79.3879
		c-11.3954,0-20.6332-9.2378-20.6332-20.6332V819.306c0-11.3954,9.2378-20.6332,20.6332-20.6332h79.3879
		c11.3954,0,20.6332,9.2378,20.6332,20.6332v79.3879C1677.4918,910.0894,1668.254,919.3271,1656.8586,919.3271z"/>
	<path fill="none" stroke="#000000" stroke-width="3.2786" stroke-miterlimit="10" d="M1654.9333,924.5729h-86.2913
		c-12.3862,0-22.4274-10.041-22.4274-22.4273v-86.2913c0-12.3863,10.0411-22.4273,22.4274-22.4273h86.2913
		c12.3862,0,22.4274,10.041,22.4274,22.4273v86.2913C1677.3607,914.5319,1667.3196,924.5729,1654.9333,924.5729z"/>
	<path fill="none" stroke="#000000" stroke-width="3.5637" stroke-miterlimit="10" d="M1652.8406,930.275h-93.7948
		c-13.4634,0-24.3776-10.9142-24.3776-24.3776v-93.7948c0-13.4634,10.9142-24.3776,24.3776-24.3776h93.7948
		c13.4634,0,24.3776,10.9142,24.3776,24.3776v93.7948C1677.2181,919.3608,1666.304,930.275,1652.8406,930.275z"/>
	<path fill="none" stroke="#000000" stroke-width="3.8736" stroke-miterlimit="10" d="M1650.5659,936.4728H1548.615
		c-14.6342,0-26.4973-11.8632-26.4973-26.4973V808.0245c0-14.6341,11.8632-26.4973,26.4973-26.4973h101.9509
		c14.634,0,26.4973,11.8632,26.4973,26.4973v101.9509C1677.0632,924.6096,1665.2,936.4728,1650.5659,936.4728z"/>
	<path fill="none" stroke="#000000" stroke-width="4.2105" stroke-miterlimit="10" d="M1648.0934,943.2095h-110.8163
		c-15.9066,0-28.8014-12.8948-28.8014-28.8014V803.5919c0-15.9066,12.8948-28.8014,28.8014-28.8014h110.8163
		c15.9065,0,28.8014,12.8948,28.8014,28.8014v110.8163C1676.8948,930.3147,1663.9999,943.2095,1648.0934,943.2095z"/>
	<path fill="none" stroke="#000000" stroke-width="4.5766" stroke-miterlimit="10" d="M1645.4058,950.5321h-120.4524
		c-17.2898,0-31.3059-14.0161-31.3059-31.3059V798.7738c0-17.2898,14.0161-31.3059,31.3059-31.3059h120.4524
		c17.2898,0,31.3059,14.0161,31.3059,31.3059v120.4524C1676.7117,936.516,1662.6956,950.5321,1645.4058,950.5321z"/>
	<path fill="none" stroke="#000000" stroke-width="4.9746" stroke-miterlimit="10" d="M1642.4846,958.4915H1511.558
		c-18.7932,0-34.0281-15.2349-34.0281-34.0282V793.5367c0-18.7933,15.2349-34.0282,34.0281-34.0282h130.9266
		c18.7932,0,34.0281,15.2349,34.0281,34.0282v130.9265C1676.5127,943.2565,1661.2778,958.4915,1642.4846,958.4915z"/>
	<path fill="none" stroke="#000000" stroke-width="5.4071" stroke-miterlimit="10" d="M1639.3093,967.1429h-142.3115
		c-20.4274,0-36.9871-16.5598-36.9871-36.9871V787.8442c0-20.4274,16.5597-36.9871,36.9871-36.9871h142.3115
		c20.4274,0,36.9871,16.5598,36.9871,36.9871v142.3115C1676.2964,950.5831,1659.7367,967.1429,1639.3093,967.1429z"/>
	<path fill="none" stroke="#000000" stroke-width="5.8773" stroke-miterlimit="10" d="M1635.8579,976.5466h-154.6864
		c-22.2036,0-40.2034-17.9996-40.2034-40.2034V781.6568c0-22.2037,17.9998-40.2034,40.2034-40.2034h154.6864
		c22.2037,0,40.2034,17.9996,40.2034,40.2034v154.6864C1676.0613,958.5469,1658.0616,976.5466,1635.8579,976.5466z"/>
	<path fill="none" stroke="#000000" stroke-width="6.3884" stroke-miterlimit="10" d="M1632.1064,986.768h-168.1373
		c-24.1345,0-43.6993-19.5648-43.6993-43.6993V774.9313c0-24.1345,19.5648-43.6993,43.6993-43.6993h168.1373
		c24.1345,0,43.6993,19.5648,43.6993,43.6993v168.1373C1675.8058,967.2032,1656.241,986.768,1632.1064,986.768z"/>
	<path fill="none" stroke="#000000" stroke-width="6.9439" stroke-miterlimit="10" d="M1628.0288,997.8783h-182.7581
		c-26.2332,0-47.4993-21.2662-47.4993-47.4993V767.621c0-26.2331,21.2661-47.4993,47.4993-47.4993h182.7581
		c26.233,0,47.4993,21.2662,47.4993,47.4993V950.379C1675.5281,976.6121,1654.2618,997.8783,1628.0288,997.8783z"/>
	<path fill="none" stroke="#000000" stroke-width="7.5477" stroke-miterlimit="10" d="M1623.5964,1009.9547h-198.65
		c-28.5142,0-51.6296-23.1154-51.6296-51.6296v-198.65c0-28.5143,23.1155-51.6296,51.6296-51.6296h198.65
		c28.5143,0,51.6296,23.1154,51.6296,51.6296v198.65C1675.2261,986.8393,1652.1107,1009.9547,1623.5964,1009.9547z"/>
	<path fill="none" stroke="#000000" stroke-width="8.2041" stroke-miterlimit="10" d="M1618.7788,1023.0812h-215.924
		c-30.9938,0-56.1191-25.1254-56.1191-56.1192V751.038c0-30.9938,25.1254-56.1192,56.1191-56.1192h215.924
		c30.9938,0,56.1191,25.1254,56.1191,56.1192v215.924C1674.8979,997.9557,1649.7726,1023.0812,1618.7788,1023.0812z"/>
	<path fill="none" stroke="#000000" stroke-width="8.9175" stroke-miterlimit="10" d="M1613.5421,1037.3491h-234.6998
		c-33.689,0-60.9991-27.3103-60.9991-60.9991v-234.7c0-33.6888,27.3102-60.9991,60.9991-60.9991h234.6998
		c33.689,0,60.9991,27.3102,60.9991,60.9991v234.7C1674.5413,1010.0388,1647.2311,1037.3491,1613.5421,1037.3491z"/>
	<path fill="none" stroke="#000000" stroke-width="9.6929" stroke-miterlimit="10" d="M1607.8502,1052.8577h-255.1086
		c-36.6184,0-66.3035-29.685-66.3035-66.3033V731.4457c0-36.6183,29.6851-66.3034,66.3035-66.3034h255.1086
		c36.6183,0,66.3033,29.6851,66.3033,66.3034v255.1086C1674.1536,1023.1727,1644.4685,1052.8577,1607.8502,1052.8577z"/>
	<path fill="none" stroke="#000000" stroke-width="10.5357" stroke-miterlimit="10" d="M1601.6632,1069.7148h-277.292
		c-39.8025,0-72.0688-32.2664-72.0688-72.0688V720.354c0-39.8026,32.2664-72.0689,72.0688-72.0689h277.292
		c39.8026,0,72.069,32.2664,72.069,72.0689v277.292C1673.7322,1037.4485,1641.4658,1069.7148,1601.6632,1069.7148z"/>
	<path fill="none" stroke="#000000" stroke-width="11.4519" stroke-miterlimit="10" d="M1594.9382,1088.038h-301.4043
		c-43.2637,0-78.3357-35.0721-78.3357-78.3358V708.2979c0-43.2637,35.072-78.3358,78.3357-78.3358h301.4043
		c43.2637,0,78.3358,35.0721,78.3358,78.3358v301.4043C1673.274,1052.9658,1638.2019,1088.038,1594.9382,1088.038z"/>
	<path fill="none" stroke="#000000" stroke-width="12.4477" stroke-miterlimit="10" d="M1587.6285,1107.9542h-327.6134
		c-47.0256,0-85.1476-38.1218-85.1476-85.1475V695.1933c0-47.0257,38.1219-85.1476,85.1476-85.1476h327.6134
		c47.0258,0,85.1476,38.1219,85.1476,85.1476v327.6134C1672.7761,1069.8324,1634.6543,1107.9542,1587.6285,1107.9542z"/>
	<path fill="none" stroke="#000000" stroke-width="13.5301" stroke-miterlimit="10" d="M1579.6832,1129.6024h-356.1014
		c-51.115,0-92.5518-41.4368-92.5518-92.5516V680.9493c0-51.1149,41.4368-92.5518,92.5518-92.5518h356.1014
		c51.1149,0,92.5518,41.4368,92.5518,92.5518v356.1015C1672.235,1088.1656,1630.7981,1129.6024,1579.6832,1129.6024z"/>
	<path fill="none" stroke="#000000" stroke-width="14.7067" stroke-miterlimit="10" d="M1571.047,1153.1331h-387.0669
		c-55.5597,0-100.5996-45.0399-100.5996-100.5996V665.4666c0-55.5596,45.0399-100.5997,100.5996-100.5997h387.0669
		c55.5597,0,100.5997,45.04,100.5997,100.5997v387.0669C1671.6467,1108.0931,1626.6067,1153.1331,1571.047,1153.1331z"/>
	<path fill="none" stroke="#000000" stroke-width="15.9855" stroke-miterlimit="10" d="M1561.6598,1178.71h-420.7249
		c-60.391,0-109.3475-48.9565-109.3475-109.3475V648.6376c0-60.3909,48.9565-109.3475,109.3475-109.3475h420.7249
		c60.3909,0,109.3474,48.9565,109.3474,109.3475v420.7249C1671.0072,1129.7534,1622.0507,1178.71,1561.6598,1178.71z"/>
	<path fill="none" stroke="#000000" stroke-width="17.3755" stroke-miterlimit="10" d="M1551.4563,1206.5107h-457.3096
		c-65.6425,0-118.856-53.2136-118.856-118.856V630.3452c0-65.6423,53.2136-118.856,118.856-118.856h457.3096
		c65.6423,0,118.856,53.2137,118.856,118.856v457.3096C1670.3123,1153.2971,1617.0986,1206.5107,1551.4563,1206.5107z"/>
	<path fill="none" stroke="#000000" stroke-width="18.8865" stroke-miterlimit="10" d="M1540.3655,1236.7291h-497.0756
		c-71.3504,0-129.1913-57.8409-129.1913-129.1913V610.4622c0-71.3503,57.8409-129.1913,129.1913-129.1913h497.0756
		c71.3503,0,129.1913,57.8409,129.1913,129.1913v497.0757C1669.5568,1178.8882,1611.7158,1236.7291,1540.3655,1236.7291z"/>
	<path fill="none" stroke="#000000" stroke-width="20.5288" stroke-miterlimit="10" d="M1528.3103,1269.5751H988.0107
		c-77.5547,0-140.4253-62.8705-140.4253-140.4253V588.8502c0-77.5548,62.8705-140.4253,140.4253-140.4253h540.2996
		c77.5548,0,140.4253,62.8705,140.4253,140.4253v540.2996C1668.7356,1206.7046,1605.8651,1269.5751,1528.3103,1269.5751z"/>
	<path fill="none" stroke="#000000" stroke-width="22.3139" stroke-miterlimit="10" d="M1515.2069,1305.2772H927.9247
		c-84.2986,0-152.6362-68.3375-152.6362-152.6361V565.3589c0-84.2986,68.3375-152.6362,152.6362-152.6362h587.2822
		c84.2986,0,152.6361,68.3376,152.6361,152.6362v587.2822C1667.843,1236.9397,1599.5055,1305.2772,1515.2069,1305.2772z"/>
	<path fill="none" stroke="#000000" stroke-width="24.2542" stroke-miterlimit="10" d="M1500.964,1344.084H862.6138
		c-91.6289,0-165.9089-74.2799-165.9089-165.9089V539.8249c0-91.6289,74.28-165.9089,165.9089-165.9089h638.3502
		c91.629,0,165.9089,74.28,165.9089,165.9089v638.3502C1666.8729,1269.8041,1592.593,1344.084,1500.964,1344.084z"/>
	<path fill="none" stroke="#000000" stroke-width="26.3633" stroke-miterlimit="10" d="M1485.4827,1386.2653H791.6237
		c-99.5967,0-180.3358-80.7391-180.3358-180.3358V512.0706c0-99.5967,80.7391-180.3358,180.3358-180.3358h693.8589
		c99.5967,0,180.3357,80.7391,180.3357,180.3358v693.8589C1665.8184,1305.5261,1585.0793,1386.2653,1485.4827,1386.2653z"/>
	<path fill="none" stroke="#000000" stroke-width="28.6557" stroke-miterlimit="10" d="M1468.655,1432.1144H714.4605
		c-108.2573,0-196.0171-87.7599-196.0171-196.0171V481.9028c0-108.2573,87.7598-196.0172,196.0171-196.0172h754.1945
		c108.2572,0,196.0171,87.7599,196.0171,196.0172v754.1945C1664.6721,1344.3545,1576.9122,1432.1144,1468.655,1432.1144z"/>
	<path fill="none" stroke="#000000" stroke-width="31.1475" stroke-miterlimit="10" d="M1450.3641,1481.9504H630.5875
		c-117.671,0-213.0621-95.3912-213.0621-213.0621V449.1117c0-117.671,95.3911-213.0621,213.0621-213.0621h819.7766
		c117.6709,0,213.0621,95.3911,213.0621,213.0621v819.7766C1663.4263,1386.5592,1568.035,1481.9504,1450.3641,1481.9504z"/>
	<path fill="none" stroke="#000000" stroke-width="33.856" stroke-miterlimit="10" d="M1430.4828,1536.12H539.4212
		c-127.9032,0-231.5892-103.686-231.5892-231.5892V413.4692c0-127.9032,103.686-231.5892,231.5892-231.5892h891.0616
		c127.9032,0,231.5892,103.686,231.5892,231.5892v891.0615C1662.072,1432.434,1558.386,1536.12,1430.4828,1536.12z"/>
	<path fill="none" stroke="#000000" stroke-width="36.8" stroke-miterlimit="10" d="M1408.8726,1595H440.3274
		C301.3022,1595,188.6,1482.2979,188.6,1343.2726V374.7274C188.6,235.7022,301.3022,123,440.3274,123h968.5452
		C1547.8978,123,1660.6,235.7022,1660.6,374.7274v968.5452C1660.6,1482.2979,1547.8978,1595,1408.8726,1595z"/>
	<path fill="none" stroke="#000000" stroke-width="40" stroke-miterlimit="10" d="M1385.3832,1659H332.6168
		C181.5024,1659,59,1536.4976,59,1385.3832V332.6168C59,181.5024,181.5024,59,332.6168,59h1052.7664
		C1536.4976,59,1659,181.5024,1659,332.6168v1052.7664C1659,1536.4976,1536.4976,1659,1385.3832,1659z"/>
</g>
</svg>
